<svg width="640" height="180" viewBox="0 0 640 180" xmlns="http://www.w3.org/2000/svg" role="img" aria-label="북촌 logo">
  <defs>
    <linearGradient id="ring" x1="0" y1="0" x2="1" y2="1">
      <stop offset="0%" stop-color="#3f2a1f"/>
      <stop offset="100%" stop-color="#6d4c35"/>
    </linearGradient>
    <linearGradient id="roof" x1="0" y1="0" x2="0" y2="1">
      <stop offset="0%" stop-color="#2f3a68"/>
      <stop offset="100%" stop-color="#1f274b"/>
    </linearGradient>
  </defs>

  <g transform="translate(6,6)">
    <circle cx="84" cy="84" r="74" fill="#f7f1e8" stroke="url(#ring)" stroke-width="6"/>
    <path d="M40 72 Q84 40 128 72 L122 80 Q84 58 46 80 Z" fill="url(#roof)" stroke="#1f274b" stroke-width="2"/>
    <path d="M46 86 C56 84 68 84 84 90 C100 84 112 84 122 86 L122 104 C111 100 99 99 84 106 C69 99 57 100 46 104 Z" fill="#fff8ea" stroke="#b4956f" stroke-width="2"/>
    <path d="M84 72 L84 46" stroke="#c99a2e" stroke-width="2" stroke-dasharray="3 5"/>
    <circle cx="84" cy="42" r="6" fill="#d8a63b"/>
    <text x="84" y="28" text-anchor="middle" font-size="12" font-weight="700" fill="#3f2a1f" font-family="Noto Sans KR, Malgun Gothic, sans-serif">북촌</text>
  </g>

  <text x="184" y="150" font-size="150" font-weight="900" letter-spacing="0" fill="#1b1b1b" font-family="Noto Sans KR, Malgun Gothic, sans-serif">북촌</text>
</svg>
